<svg width="34" height="9" viewBox="0 0 34 9" fill="none" xmlns="http://www.w3.org/2000/svg">
<path d="M33.5879 3.49255C33.9805 3.00502 34.097 2.44764 33.9184 1.91268C33.7793 1.45769 33.4297 1.03882 32.9134 0.70885C32.3971 0.378879 31.7374 0.152581 31.0173 0.0584778C30.4458 -0.0223293 29.8525 -0.0193525 29.2831 0.0671788C28.7137 0.15371 28.1835 0.321483 27.7333 0.557558C26.6112 1.11751 25.2142 1.41324 23.7831 1.39376H10.2169C8.78582 1.41324 7.38878 1.11751 6.26668 0.557558C5.81651 0.321483 5.28628 0.15371 4.71689 0.0671788C4.14751 -0.0193525 3.55419 -0.0223293 2.98269 0.0584778C2.26261 0.152581 1.60285 0.378879 1.08659 0.70885C0.570324 1.03882 0.220653 1.45769 0.0816483 1.91268C-0.0970523 2.44764 0.0195463 3.00502 0.412146 3.49255C0.554439 3.66805 0.628633 3.86231 0.628633 4.05938C0.628633 4.25646 0.554439 4.45072 0.412146 4.62622C0.0203593 5.11391 -0.0962019 5.6711 0.0816483 6.20609C0.221014 6.66132 0.5707 7.08047 1.08682 7.41093C1.60293 7.7414 2.26249 7.96845 2.98269 8.06359C3.55419 8.1444 4.14751 8.14142 4.71689 8.05489C5.28628 7.96836 5.81651 7.80059 6.26668 7.56451C7.38828 7.00362 8.78524 6.70674 10.2169 6.725H23.7831C25.2148 6.70674 26.6117 7.00362 27.7333 7.56451C28.1835 7.80059 28.7137 7.96836 29.2831 8.05489C29.8525 8.14142 30.4458 8.1444 31.0173 8.06359C31.7375 7.96845 32.3971 7.7414 32.9132 7.41093C33.4293 7.08047 33.779 6.66132 33.9184 6.20609C34.0962 5.6711 33.9796 5.11391 33.5879 4.62622C33.4456 4.45072 33.3714 4.25646 33.3714 4.05938C33.3714 3.86231 33.4456 3.66805 33.5879 3.49255Z" fill="#DDCA69"/>
</svg>
